<mxfile host="app.diagrams.net" agent="Mozilla/5.0 (X11; Linux x86_64) AppleWebKit/537.36 (KHTML, like Gecko) Chrome/141.0.0.0 Safari/537.36" version="28.2.5">
  <diagram name="PÃ¡gina-1" id="4-2NDq9ZAHF_LiqDBnWl">
    <mxGraphModel dx="1426" dy="679" grid="1" gridSize="10" guides="1" tooltips="1" connect="1" arrows="1" fold="1" page="1" pageScale="1" pageWidth="827" pageHeight="1169" math="0" shadow="0">
      <root>
        <mxCell id="0" />
        <mxCell id="1" parent="0" />
        <mxCell id="WZ7XnvUb8tPnK-DKsq28-1" value="VISTA" style="rounded=0;whiteSpace=wrap;html=1;" vertex="1" parent="1">
          <mxGeometry x="120" y="20" width="120" height="60" as="geometry" />
        </mxCell>
        <mxCell id="WZ7XnvUb8tPnK-DKsq28-2" value="CONTROLADOR" style="rounded=0;whiteSpace=wrap;html=1;" vertex="1" parent="1">
          <mxGeometry x="320" y="20" width="120" height="60" as="geometry" />
        </mxCell>
        <mxCell id="WZ7XnvUb8tPnK-DKsq28-3" value="MODELO" style="rounded=0;whiteSpace=wrap;html=1;" vertex="1" parent="1">
          <mxGeometry x="520" y="20" width="120" height="60" as="geometry" />
        </mxCell>
        <mxCell id="WZ7XnvUb8tPnK-DKsq28-4" style="edgeStyle=orthogonalEdgeStyle;rounded=0;orthogonalLoop=1;jettySize=auto;html=1;exitX=0.5;exitY=1;exitDx=0;exitDy=0;entryX=1;entryY=0.5;entryDx=0;entryDy=0;" edge="1" parent="1" source="WZ7XnvUb8tPnK-DKsq28-5" target="WZ7XnvUb8tPnK-DKsq28-29">
          <mxGeometry relative="1" as="geometry" />
        </mxCell>
        <mxCell id="WZ7XnvUb8tPnK-DKsq28-5" value="recuperar datos de garante" style="rounded=1;whiteSpace=wrap;html=1;" vertex="1" parent="1">
          <mxGeometry x="320" y="600" width="120" height="40" as="geometry" />
        </mxCell>
        <mxCell id="WZ7XnvUb8tPnK-DKsq28-6" value="" style="ellipse;whiteSpace=wrap;html=1;aspect=fixed;fillStyle=solid;fillColor=light-dark(#FFFFFF,#121212);" vertex="1" parent="1">
          <mxGeometry x="170" y="1090" width="20" height="20" as="geometry" />
        </mxCell>
        <mxCell id="WZ7XnvUb8tPnK-DKsq28-7" style="edgeStyle=orthogonalEdgeStyle;rounded=0;orthogonalLoop=1;jettySize=auto;html=1;exitX=1;exitY=0.5;exitDx=0;exitDy=0;entryX=0;entryY=0.5;entryDx=0;entryDy=0;" edge="1" parent="1" source="WZ7XnvUb8tPnK-DKsq28-8" target="WZ7XnvUb8tPnK-DKsq28-5">
          <mxGeometry relative="1" as="geometry" />
        </mxCell>
        <mxCell id="WZ7XnvUb8tPnK-DKsq28-8" value="modificar garante" style="rounded=1;whiteSpace=wrap;html=1;" vertex="1" parent="1">
          <mxGeometry x="120" y="600" width="120" height="40" as="geometry" />
        </mxCell>
        <mxCell id="WZ7XnvUb8tPnK-DKsq28-9" style="edgeStyle=orthogonalEdgeStyle;rounded=0;orthogonalLoop=1;jettySize=auto;html=1;exitX=0.5;exitY=1;exitDx=0;exitDy=0;entryX=0.5;entryY=0;entryDx=0;entryDy=0;" edge="1" parent="1" source="WZ7XnvUb8tPnK-DKsq28-10" target="WZ7XnvUb8tPnK-DKsq28-12">
          <mxGeometry relative="1" as="geometry" />
        </mxCell>
        <mxCell id="WZ7XnvUb8tPnK-DKsq28-10" value="vista garantes" style="rounded=1;whiteSpace=wrap;html=1;" vertex="1" parent="1">
          <mxGeometry x="120" y="120" width="120" height="40" as="geometry" />
        </mxCell>
        <mxCell id="WZ7XnvUb8tPnK-DKsq28-11" style="edgeStyle=orthogonalEdgeStyle;rounded=0;orthogonalLoop=1;jettySize=auto;html=1;exitX=1;exitY=0.5;exitDx=0;exitDy=0;entryX=0;entryY=0.5;entryDx=0;entryDy=0;" edge="1" parent="1" source="WZ7XnvUb8tPnK-DKsq28-12" target="WZ7XnvUb8tPnK-DKsq28-14">
          <mxGeometry relative="1" as="geometry" />
        </mxCell>
        <mxCell id="WZ7XnvUb8tPnK-DKsq28-12" value="listar garantes" style="rounded=1;whiteSpace=wrap;html=1;" vertex="1" parent="1">
          <mxGeometry x="120" y="200" width="120" height="40" as="geometry" />
        </mxCell>
        <mxCell id="WZ7XnvUb8tPnK-DKsq28-13" style="edgeStyle=orthogonalEdgeStyle;rounded=0;orthogonalLoop=1;jettySize=auto;html=1;exitX=1;exitY=0.5;exitDx=0;exitDy=0;entryX=0;entryY=0.5;entryDx=0;entryDy=0;" edge="1" parent="1" source="WZ7XnvUb8tPnK-DKsq28-14" target="WZ7XnvUb8tPnK-DKsq28-16">
          <mxGeometry relative="1" as="geometry" />
        </mxCell>
        <mxCell id="WZ7XnvUb8tPnK-DKsq28-14" value="recuperar lista garantes" style="rounded=1;whiteSpace=wrap;html=1;" vertex="1" parent="1">
          <mxGeometry x="320" y="200" width="120" height="40" as="geometry" />
        </mxCell>
        <mxCell id="WZ7XnvUb8tPnK-DKsq28-15" style="edgeStyle=orthogonalEdgeStyle;rounded=0;orthogonalLoop=1;jettySize=auto;html=1;exitX=0.5;exitY=1;exitDx=0;exitDy=0;entryX=1;entryY=0.5;entryDx=0;entryDy=0;" edge="1" parent="1" source="WZ7XnvUb8tPnK-DKsq28-16" target="WZ7XnvUb8tPnK-DKsq28-21">
          <mxGeometry relative="1" as="geometry" />
        </mxCell>
        <mxCell id="WZ7XnvUb8tPnK-DKsq28-16" value="recuperar garantes" style="rounded=1;whiteSpace=wrap;html=1;" vertex="1" parent="1">
          <mxGeometry x="520" y="200" width="120" height="40" as="geometry" />
        </mxCell>
        <mxCell id="WZ7XnvUb8tPnK-DKsq28-17" style="edgeStyle=orthogonalEdgeStyle;rounded=0;orthogonalLoop=1;jettySize=auto;html=1;exitX=0;exitY=0.5;exitDx=0;exitDy=0;entryX=1;entryY=0.5;entryDx=0;entryDy=0;" edge="1" parent="1" source="WZ7XnvUb8tPnK-DKsq28-19" target="WZ7XnvUb8tPnK-DKsq28-23">
          <mxGeometry relative="1" as="geometry" />
        </mxCell>
        <mxCell id="WZ7XnvUb8tPnK-DKsq28-18" style="edgeStyle=orthogonalEdgeStyle;rounded=0;orthogonalLoop=1;jettySize=auto;html=1;exitX=0.5;exitY=1;exitDx=0;exitDy=0;entryX=1;entryY=0.5;entryDx=0;entryDy=0;" edge="1" parent="1" source="WZ7XnvUb8tPnK-DKsq28-19" target="WZ7XnvUb8tPnK-DKsq28-25">
          <mxGeometry relative="1" as="geometry" />
        </mxCell>
        <mxCell id="WZ7XnvUb8tPnK-DKsq28-19" value="" style="rhombus;whiteSpace=wrap;html=1;" vertex="1" parent="1">
          <mxGeometry x="360" y="360" width="40" height="40" as="geometry" />
        </mxCell>
        <mxCell id="WZ7XnvUb8tPnK-DKsq28-20" style="edgeStyle=orthogonalEdgeStyle;rounded=0;orthogonalLoop=1;jettySize=auto;html=1;exitX=0.5;exitY=1;exitDx=0;exitDy=0;entryX=0.5;entryY=0;entryDx=0;entryDy=0;" edge="1" parent="1" source="WZ7XnvUb8tPnK-DKsq28-21" target="WZ7XnvUb8tPnK-DKsq28-19">
          <mxGeometry relative="1" as="geometry" />
        </mxCell>
        <mxCell id="WZ7XnvUb8tPnK-DKsq28-21" value="comprobar lista" style="rounded=1;whiteSpace=wrap;html=1;" vertex="1" parent="1">
          <mxGeometry x="320" y="280" width="120" height="40" as="geometry" />
        </mxCell>
        <mxCell id="WZ7XnvUb8tPnK-DKsq28-22" style="edgeStyle=orthogonalEdgeStyle;rounded=0;orthogonalLoop=1;jettySize=auto;html=1;exitX=0;exitY=0.5;exitDx=0;exitDy=0;entryX=0;entryY=0.5;entryDx=0;entryDy=0;" edge="1" parent="1" source="WZ7XnvUb8tPnK-DKsq28-23" target="WZ7XnvUb8tPnK-DKsq28-6">
          <mxGeometry relative="1" as="geometry">
            <Array as="points">
              <mxPoint x="80" y="380" />
              <mxPoint x="80" y="1100" />
            </Array>
          </mxGeometry>
        </mxCell>
        <mxCell id="WZ7XnvUb8tPnK-DKsq28-23" value="informar lista vacia" style="rounded=1;whiteSpace=wrap;html=1;" vertex="1" parent="1">
          <mxGeometry x="120" y="360" width="120" height="40" as="geometry" />
        </mxCell>
        <mxCell id="WZ7XnvUb8tPnK-DKsq28-24" style="edgeStyle=orthogonalEdgeStyle;rounded=0;orthogonalLoop=1;jettySize=auto;html=1;exitX=0.5;exitY=1;exitDx=0;exitDy=0;entryX=0.5;entryY=0;entryDx=0;entryDy=0;" edge="1" parent="1" source="WZ7XnvUb8tPnK-DKsq28-25" target="WZ7XnvUb8tPnK-DKsq28-27">
          <mxGeometry relative="1" as="geometry" />
        </mxCell>
        <mxCell id="WZ7XnvUb8tPnK-DKsq28-25" value="mostrar lista" style="rounded=1;whiteSpace=wrap;html=1;" vertex="1" parent="1">
          <mxGeometry x="120" y="440" width="120" height="40" as="geometry" />
        </mxCell>
        <mxCell id="WZ7XnvUb8tPnK-DKsq28-26" style="edgeStyle=orthogonalEdgeStyle;rounded=0;orthogonalLoop=1;jettySize=auto;html=1;exitX=0.5;exitY=1;exitDx=0;exitDy=0;" edge="1" parent="1" source="WZ7XnvUb8tPnK-DKsq28-27" target="WZ7XnvUb8tPnK-DKsq28-8">
          <mxGeometry relative="1" as="geometry" />
        </mxCell>
        <mxCell id="WZ7XnvUb8tPnK-DKsq28-27" value="seleccionar garante" style="rounded=1;whiteSpace=wrap;html=1;" vertex="1" parent="1">
          <mxGeometry x="120" y="520" width="120" height="40" as="geometry" />
        </mxCell>
        <mxCell id="WZ7XnvUb8tPnK-DKsq28-28" style="edgeStyle=orthogonalEdgeStyle;rounded=0;orthogonalLoop=1;jettySize=auto;html=1;exitX=0.5;exitY=1;exitDx=0;exitDy=0;entryX=0.5;entryY=0;entryDx=0;entryDy=0;" edge="1" parent="1" source="WZ7XnvUb8tPnK-DKsq28-29" target="WZ7XnvUb8tPnK-DKsq28-31">
          <mxGeometry relative="1" as="geometry" />
        </mxCell>
        <mxCell id="WZ7XnvUb8tPnK-DKsq28-29" value="mostrar formulario" style="rounded=1;whiteSpace=wrap;html=1;" vertex="1" parent="1">
          <mxGeometry x="120" y="680" width="120" height="40" as="geometry" />
        </mxCell>
        <mxCell id="WZ7XnvUb8tPnK-DKsq28-30" style="edgeStyle=orthogonalEdgeStyle;rounded=0;orthogonalLoop=1;jettySize=auto;html=1;exitX=0.5;exitY=1;exitDx=0;exitDy=0;entryX=0.5;entryY=0;entryDx=0;entryDy=0;" edge="1" parent="1" source="WZ7XnvUb8tPnK-DKsq28-31" target="WZ7XnvUb8tPnK-DKsq28-42">
          <mxGeometry relative="1" as="geometry" />
        </mxCell>
        <mxCell id="WZ7XnvUb8tPnK-DKsq28-31" value="modificar formulario" style="rounded=1;whiteSpace=wrap;html=1;" vertex="1" parent="1">
          <mxGeometry x="120" y="760" width="120" height="40" as="geometry" />
        </mxCell>
        <mxCell id="WZ7XnvUb8tPnK-DKsq28-32" style="edgeStyle=orthogonalEdgeStyle;rounded=0;orthogonalLoop=1;jettySize=auto;html=1;exitX=0.5;exitY=1;exitDx=0;exitDy=0;entryX=0.5;entryY=0;entryDx=0;entryDy=0;" edge="1" parent="1" source="WZ7XnvUb8tPnK-DKsq28-33" target="WZ7XnvUb8tPnK-DKsq28-36">
          <mxGeometry relative="1" as="geometry" />
        </mxCell>
        <mxCell id="WZ7XnvUb8tPnK-DKsq28-33" value="validar datos" style="rounded=1;whiteSpace=wrap;html=1;" vertex="1" parent="1">
          <mxGeometry x="320" y="840" width="120" height="40" as="geometry" />
        </mxCell>
        <mxCell id="WZ7XnvUb8tPnK-DKsq28-34" style="edgeStyle=orthogonalEdgeStyle;rounded=0;orthogonalLoop=1;jettySize=auto;html=1;exitX=0;exitY=0.5;exitDx=0;exitDy=0;" edge="1" parent="1" source="WZ7XnvUb8tPnK-DKsq28-36" target="WZ7XnvUb8tPnK-DKsq28-38">
          <mxGeometry relative="1" as="geometry" />
        </mxCell>
        <mxCell id="WZ7XnvUb8tPnK-DKsq28-35" style="edgeStyle=orthogonalEdgeStyle;rounded=0;orthogonalLoop=1;jettySize=auto;html=1;exitX=0.5;exitY=1;exitDx=0;exitDy=0;entryX=0.5;entryY=0;entryDx=0;entryDy=0;" edge="1" parent="1" source="WZ7XnvUb8tPnK-DKsq28-36" target="WZ7XnvUb8tPnK-DKsq28-40">
          <mxGeometry relative="1" as="geometry" />
        </mxCell>
        <mxCell id="WZ7XnvUb8tPnK-DKsq28-36" value="" style="rhombus;whiteSpace=wrap;html=1;" vertex="1" parent="1">
          <mxGeometry x="360" y="920" width="40" height="40" as="geometry" />
        </mxCell>
        <mxCell id="WZ7XnvUb8tPnK-DKsq28-37" style="edgeStyle=orthogonalEdgeStyle;rounded=0;orthogonalLoop=1;jettySize=auto;html=1;exitX=0;exitY=0.5;exitDx=0;exitDy=0;entryX=0;entryY=0.5;entryDx=0;entryDy=0;" edge="1" parent="1" source="WZ7XnvUb8tPnK-DKsq28-38" target="WZ7XnvUb8tPnK-DKsq28-29">
          <mxGeometry relative="1" as="geometry" />
        </mxCell>
        <mxCell id="WZ7XnvUb8tPnK-DKsq28-38" value="informar error" style="rounded=1;whiteSpace=wrap;html=1;" vertex="1" parent="1">
          <mxGeometry x="120" y="920" width="120" height="40" as="geometry" />
        </mxCell>
        <mxCell id="WZ7XnvUb8tPnK-DKsq28-39" style="edgeStyle=orthogonalEdgeStyle;rounded=0;orthogonalLoop=1;jettySize=auto;html=1;exitX=1;exitY=0.5;exitDx=0;exitDy=0;entryX=0;entryY=0.5;entryDx=0;entryDy=0;" edge="1" parent="1" source="WZ7XnvUb8tPnK-DKsq28-40" target="WZ7XnvUb8tPnK-DKsq28-44">
          <mxGeometry relative="1" as="geometry" />
        </mxCell>
        <mxCell id="WZ7XnvUb8tPnK-DKsq28-40" value="modificar garante" style="rounded=1;whiteSpace=wrap;html=1;" vertex="1" parent="1">
          <mxGeometry x="320" y="1000" width="120" height="40" as="geometry" />
        </mxCell>
        <mxCell id="WZ7XnvUb8tPnK-DKsq28-41" style="edgeStyle=orthogonalEdgeStyle;rounded=0;orthogonalLoop=1;jettySize=auto;html=1;exitX=1;exitY=0.5;exitDx=0;exitDy=0;entryX=0;entryY=0.5;entryDx=0;entryDy=0;" edge="1" parent="1" source="WZ7XnvUb8tPnK-DKsq28-42" target="WZ7XnvUb8tPnK-DKsq28-33">
          <mxGeometry relative="1" as="geometry" />
        </mxCell>
        <mxCell id="WZ7XnvUb8tPnK-DKsq28-42" value="confirmar formulario" style="rounded=1;whiteSpace=wrap;html=1;" vertex="1" parent="1">
          <mxGeometry x="120" y="840" width="120" height="40" as="geometry" />
        </mxCell>
        <mxCell id="WZ7XnvUb8tPnK-DKsq28-43" style="edgeStyle=orthogonalEdgeStyle;rounded=0;orthogonalLoop=1;jettySize=auto;html=1;exitX=0.5;exitY=1;exitDx=0;exitDy=0;entryX=1;entryY=0.5;entryDx=0;entryDy=0;" edge="1" parent="1" source="WZ7XnvUb8tPnK-DKsq28-44" target="WZ7XnvUb8tPnK-DKsq28-6">
          <mxGeometry relative="1" as="geometry" />
        </mxCell>
        <mxCell id="WZ7XnvUb8tPnK-DKsq28-44" value="modificar tabla garantes" style="rounded=1;whiteSpace=wrap;html=1;" vertex="1" parent="1">
          <mxGeometry x="520" y="1000" width="120" height="40" as="geometry" />
        </mxCell>
      </root>
    </mxGraphModel>
  </diagram>
</mxfile>
